<?xml version="1.0" encoding="iso-8859-1"?>
<!-- Uploaded to: SVG Repo, www.svgrepo.com, Generator: SVG Repo Mixer Tools -->
<!DOCTYPE svg PUBLIC "-//W3C//DTD SVG 1.1//EN" "http://www.w3.org/Graphics/SVG/1.1/DTD/svg11.dtd">
<svg fill="#fff" version="1.1" id="Capa_1" xmlns="http://www.w3.org/2000/svg" xmlns:xlink="http://www.w3.org/1999/xlink" 
	 width="800px" height="800px" viewBox="0 0 94 94" xml:space="preserve">
<g>
	<path d="M89,0H5C2.239,0,0,2.239,0,5v84c0,2.761,2.239,5,5,5h84c2.762,0,5-2.239,5-5V5C94,2.239,91.762,0,89,0z M40.653,63.016
		c1.754,1.81,3.885,2.715,6.39,2.715h18.036c2.5,0,4.649,0.925,6.438,2.771c1.791,1.845,2.685,4.056,2.685,6.638
		c0,2.58-0.894,4.799-2.685,6.639c-1.789,1.844-3.932,2.766-6.438,2.766H47.05c-7.51,0-13.929-2.749-19.257-8.251
		c-5.334-5.5-7.998-12.125-7.998-19.876V18.872c0-2.655,0.889-4.89,2.664-6.701c1.775-1.808,3.945-2.713,6.505-2.713
		c2.483,0,4.623,0.921,6.394,2.77c1.777,1.841,2.667,4.053,2.667,6.637v9.404h27.028c2.512,0,4.664,0.924,6.459,2.769
		c1.799,1.843,2.691,4.057,2.691,6.64c0,2.579-0.895,4.793-2.686,6.637c-1.789,1.843-3.938,2.766-6.439,2.766H38.024v9.325
		C38.024,58.996,38.898,61.198,40.653,63.016z"/>
</g>
</svg>